<?xml version="1.0" encoding="UTF-8" standalone="no"?>
<!-- Created with Inkscape (http://www.inkscape.org/) -->

<svg
   xmlns:dc="http://purl.org/dc/elements/1.1/"
   xmlns:cc="http://creativecommons.org/ns#"
   xmlns:rdf="http://www.w3.org/1999/02/22-rdf-syntax-ns#"
   xmlns:svg="http://www.w3.org/2000/svg"
   xmlns="http://www.w3.org/2000/svg"
   xmlns:sodipodi="http://sodipodi.sourceforge.net/DTD/sodipodi-0.dtd"
   xmlns:inkscape="http://www.inkscape.org/namespaces/inkscape"
   width="261.09"
   height="255"
   id="svg2"
   version="1.1"
   inkscape:version="0.48.4 r9939"
   sodipodi:docname="skill.svg">
  <defs
     id="defs4" />
  <sodipodi:namedview
     id="base"
     pagecolor="#ffffff"
     bordercolor="#666666"
     borderopacity="1.0"
     inkscape:pageopacity="0.0"
     inkscape:pageshadow="2"
     inkscape:zoom="1.4"
     inkscape:cx="238.2132"
     inkscape:cy="37.828821"
     inkscape:document-units="px"
     inkscape:current-layer="layer1"
     showgrid="false"
     inkscape:window-width="1920"
     inkscape:window-height="1017"
     inkscape:window-x="-8"
     inkscape:window-y="-8"
     inkscape:window-maximized="1" />
  <metadata
     id="metadata7">
    <rdf:RDF>
      <cc:Work
         rdf:about="">
        <dc:format>image/svg+xml</dc:format>
        <dc:type
           rdf:resource="http://purl.org/dc/dcmitype/StillImage" />
        <dc:title></dc:title>
      </cc:Work>
    </rdf:RDF>
  </metadata>
  <g
     inkscape:label="Layer 1"
     inkscape:groupmode="layer"
     id="layer1"
     transform="translate(0,-797.36218)">
    <g
       id="g4107"
       transform="matrix(1.2668298,0,0,1.2668298,18.365556,808.53915)">
      <path
         id="path4109"
         d="M 88.759839,90.425197 C 67.854328,110.40945 34.688975,109.70079 14.704724,88.795276 -5.3149604,67.889764 -4.570866,34.724409 16.334645,14.704724 37.240156,-5.2795276 70.405509,-4.5708661 90.389761,16.334646 110.40944,37.240158 109.66535,70.405512 88.759839,90.425197 z"
         style="fill:#000000;fill-opacity:1;fill-rule:nonzero;stroke:#000000;stroke-width:0.28346455px;stroke-linecap:butt;stroke-linejoin:miter;stroke-miterlimit:4;stroke-opacity:1;stroke-dasharray:none"
         inkscape:connector-curvature="0" />
      <path
         id="path4111"
         d="M 85.216532,86.704724 C 66.366139,104.74016 36.460629,104.06693 18.425196,85.216535 0.3543307,66.366142 1.027559,36.46063 19.877952,18.425197 38.728345,0.38976378 68.633856,1.0629921 86.669288,19.913386 104.70472,38.76378 104.06693,68.669291 85.216532,86.704724 z"
         style="fill:#ffffff;fill-opacity:1;fill-rule:nonzero;stroke:#000000;stroke-width:0.28346455px;stroke-linecap:butt;stroke-linejoin:miter;stroke-miterlimit:4;stroke-opacity:1;stroke-dasharray:none"
         inkscape:connector-curvature="0" />
      <path
         id="path4113"
         d="m 82.41732,95.42126 13.3937,14.24409 c 0,0 -2.374015,2.90552 1.736221,7.19292 4.641729,4.85433 62.964569,65.87008 62.964569,65.87008 0,0 3.01181,4.85433 10.55905,-2.23229 m 0,0 0.49606,-0.42519 c 7.37008,-7.26378 2.65748,-10.45276 2.65748,-10.45276 0,0 -58.67716,-60.73228 -63.38976,-65.51575 -4.7126,-4.783462 -7.05118,-1.98425 -7.05118,-1.98425 L 89.999997,88.15748 82.41732,95.42126"
         style="fill:#000000;fill-opacity:1;fill-rule:nonzero;stroke:#000000;stroke-width:0.77952754px;stroke-linecap:butt;stroke-linejoin:miter;stroke-miterlimit:4;stroke-opacity:1;stroke-dasharray:none"
         inkscape:connector-curvature="0" />
    </g>
  </g>
</svg>
