<?xml version="1.0" encoding="UTF-8" standalone="no"?>
<!-- Created with Inkscape (http://www.inkscape.org/) -->

<svg
   xmlns:dc="http://purl.org/dc/elements/1.1/"
   xmlns:cc="http://creativecommons.org/ns#"
   xmlns:rdf="http://www.w3.org/1999/02/22-rdf-syntax-ns#"
   xmlns:svg="http://www.w3.org/2000/svg"
   xmlns="http://www.w3.org/2000/svg"
   xmlns:sodipodi="http://sodipodi.sourceforge.net/DTD/sodipodi-0.dtd"
   xmlns:inkscape="http://www.inkscape.org/namespaces/inkscape"
   width="261.09"
   height="255"
   id="svg2"
   version="1.1"
   inkscape:version="0.48.4 r9939"
   sodipodi:docname="New document 1">
  <defs
     id="defs4" />
  <sodipodi:namedview
     id="base"
     pagecolor="#ffffff"
     bordercolor="#666666"
     borderopacity="1.0"
     inkscape:pageopacity="0.0"
     inkscape:pageshadow="2"
     inkscape:zoom="1.979899"
     inkscape:cx="210.85499"
     inkscape:cy="173.9053"
     inkscape:document-units="px"
     inkscape:current-layer="layer1"
     showgrid="false"
     inkscape:window-width="1920"
     inkscape:window-height="1017"
     inkscape:window-x="-8"
     inkscape:window-y="-8"
     inkscape:window-maximized="1" />
  <metadata
     id="metadata7">
    <rdf:RDF>
      <cc:Work
         rdf:about="">
        <dc:format>image/svg+xml</dc:format>
        <dc:type
           rdf:resource="http://purl.org/dc/dcmitype/StillImage" />
        <dc:title></dc:title>
      </cc:Work>
    </rdf:RDF>
  </metadata>
  <g
     inkscape:label="Layer 1"
     inkscape:groupmode="layer"
     id="layer1"
     transform="translate(0,-797.36218)">
    <g
       style="display:inline"
       id="g3193"
       transform="translate(-1412.4626,-11.292228)">
      <g
         transform="translate(1564.4737,6.363961)"
         id="g6064">
        <path
           transform="translate(42.5,-38)"
           d="m 57,978.36218 c 0,60.19902 -48.5771046,109.00002 -108.5,109.00002 -59.9229,0 -108.5,-48.801 -108.5,-109.00002 0,-60.19904 48.5771,-109 108.5,-109 59.9228954,0 108.5,48.80096 108.5,109 z"
           sodipodi:ry="109"
           sodipodi:rx="108.5"
           sodipodi:cy="978.36218"
           sodipodi:cx="-51.5"
           id="path5904"
           style="fill:#000000;fill-opacity:1;stroke:#000000;stroke-width:2.79999995;stroke-miterlimit:4;stroke-opacity:1;stroke-dasharray:none"
           sodipodi:type="arc" />
        <path
           sodipodi:type="arc"
           style="fill:#979797;fill-opacity:1;stroke:#000000;stroke-width:2.79999995;stroke-miterlimit:4;stroke-opacity:1;stroke-dasharray:none"
           id="path5902"
           sodipodi:cx="-51.5"
           sodipodi:cy="978.36218"
           sodipodi:rx="108.5"
           sodipodi:ry="109"
           d="m 57,978.36218 c 0,60.19902 -48.5771046,109.00002 -108.5,109.00002 -59.9229,0 -108.5,-48.801 -108.5,-109.00002 0,-60.19904 48.5771,-109 108.5,-109 59.9228954,0 108.5,48.80096 108.5,109 z"
           transform="translate(35,-42)" />
        <path
           style="fill:#000000;fill-opacity:1;stroke:#000000;stroke-width:2.79999995;stroke-miterlimit:4;stroke-opacity:1;stroke-dasharray:none"
           d="m -23.84375,853.4375 0,17.625 c -39.012853,3.09432 -38.28125,35.5 -38.28125,35.5 0,0 -2.943246,24.69015 38.28125,33.59375 l 0,46.40625 c -24.459617,-3.11259 -27.1875,-21.4375 -27.1875,-21.4375 l -1.625,-7.65625 -14.6875,0.65625 c 0,0 -1.475571,37.62347 43.5,43.3125 l 0,17.6875 16.15625,0 0,-17.1562 C 35.160627,999.33673 33,961.71875 33,961.71875 c 0,0 1.135172,-24.65753 -40.6875,-33.875 l 0,-41.4375 C 4.0754389,889.15061 10,895.625 10,895.625 c 0,0 5.36391,7.49557 4.46875,15.09375 l 15,-0.25 c 0,0 0.518836,-33.90955 -37.15625,-39 l 0,-18.03125 -16.15625,0 z m 0,32.03125 0,39.1875 c -37.357593,-9.22911 -19.53125,-30.5 -19.53125,-30.5 0,0 5.387682,-7.15941 19.53125,-8.6875 z m 16.15625,57.875 C 28.05843,952.12531 18,969.875 18,969.875 c 0,0 -2.02206,13.81214 -25.6875,16.625 l 0,-43.15625 z"
           id="path5925"
           inkscape:connector-curvature="0" />
        <path
           inkscape:connector-curvature="0"
           id="path5912"
           d="m -118.06907,891.90961 c 0,0 17.5009,-41.54253 56.39177,-56.74532 L -18,935.25863 l 0,0 z"
           style="fill:#ffffff;fill-opacity:1;stroke:none" />
      </g>
      <g
         transform="translate(1565.3576,5.1265241)"
         id="g6070">
        <path
           inkscape:connector-curvature="0"
           id="path5910"
           d="m -136.99295,876.29512 c 0,0 17.5009,-41.54253 56.39177,-56.74532 l 43.6773,100.09434 0,0 z"
           style="fill:#000000;fill-opacity:1;stroke:none" />
        <path
           style="fill:#979797;fill-opacity:1;stroke:#000000;stroke-width:2.79999995;stroke-miterlimit:4;stroke-opacity:1;stroke-dasharray:none"
           d="m -145.24295,871.54512 c 0,0 17.5009,-41.54253 56.39177,-56.74532 l 43.6773,100.09434 0,0 z"
           id="path5906"
           inkscape:connector-curvature="0" />
        <path
           style="fill:#000000;fill-opacity:1;stroke:none"
           d="m -45.00543,915.35683 -43.31029,-19.09188 c 0,0 -10.88977,-24.80729 17.14734,-41.63091 5.7871,13.30137 5.9121,13.42637 5.9121,13.42637 0,0 -30.75,22.125 13.125,35.5 -0.0625,-5.5 -0.25,-5.6875 -0.25,-5.6875 z"
           id="path5938"
           inkscape:connector-curvature="0" />
      </g>
    </g>
  </g>
</svg>
