<?xml version="1.0" encoding="UTF-8" standalone="no"?>
<!-- Created with Inkscape (http://www.inkscape.org/) -->

<svg
   xmlns:dc="http://purl.org/dc/elements/1.1/"
   xmlns:cc="http://creativecommons.org/ns#"
   xmlns:rdf="http://www.w3.org/1999/02/22-rdf-syntax-ns#"
   xmlns:svg="http://www.w3.org/2000/svg"
   xmlns="http://www.w3.org/2000/svg"
   xmlns:sodipodi="http://sodipodi.sourceforge.net/DTD/sodipodi-0.dtd"
   xmlns:inkscape="http://www.inkscape.org/namespaces/inkscape"
   width="261.09"
   height="255"
   id="svg2"
   version="1.1"
   inkscape:version="0.48.4 r9939"
   sodipodi:docname="budget.svg">
  <defs
     id="defs4" />
  <sodipodi:namedview
     id="base"
     pagecolor="#ffffff"
     bordercolor="#666666"
     borderopacity="1.0"
     inkscape:pageopacity="0.0"
     inkscape:pageshadow="2"
     inkscape:zoom="0.98994949"
     inkscape:cx="287.09056"
     inkscape:cy="204.61106"
     inkscape:document-units="px"
     inkscape:current-layer="layer1"
     showgrid="false"
     inkscape:window-width="1920"
     inkscape:window-height="1017"
     inkscape:window-x="-8"
     inkscape:window-y="-8"
     inkscape:window-maximized="1" />
  <metadata
     id="metadata7">
    <rdf:RDF>
      <cc:Work
         rdf:about="">
        <dc:format>image/svg+xml</dc:format>
        <dc:type
           rdf:resource="http://purl.org/dc/dcmitype/StillImage" />
        <dc:title></dc:title>
      </cc:Work>
    </rdf:RDF>
  </metadata>
  <g
     inkscape:label="Layer 1"
     inkscape:groupmode="layer"
     id="layer1"
     transform="translate(0,-797.36218)">
    <g
       style="display:inline"
       id="g3913"
       transform="matrix(0.61086984,0,0,0.70664841,-1156.9885,334.21565)">
      <path
         sodipodi:nodetypes="cccc"
         inkscape:connector-curvature="0"
         id="path5712"
         d="m 1926.2572,995.96201 199.0204,-316.7559 169.7193,316.4975 z"
         style="fill:#ffffff;fill-opacity:1;stroke:#000000;stroke-width:10.30000019;stroke-miterlimit:4;stroke-opacity:1;stroke-dasharray:none" />
      <path
         inkscape:connector-curvature="0"
         id="path5727"
         d="m 2060.3391,904.28331 3.1563,-3.1562 -0.4509,-5.4106 -3.3817,-3.6071 -3.3816,-4.058 -6.087,-0.6763 -2.7053,-1.8035 -2.7053,-5.1853 1.1272,-1.1271 1.5781,-0.2255 1.3527,2.029 1.8035,3.1562 2.9308,1.3527 1.1272,-0.9019 0.4509,-7.2141 2.029,-2.2544 1.3526,-0.4509 6.5379,15.1047 2.4798,4.2834 2.9308,3.8325 1.5781,2.029 0,3.1562 -0.6763,1.8035 -3.8326,0.2255 0,2.4799 2.029,0 3.6071,-1.1273 2.7053,-0.6763 4.058,0.9018 4.058,4.0579 2.7053,0.6764 3.3816,0 -0.9017,-2.4799 -8.116,-4.058 -6.087,-7.2142 -5.8615,-10.1449 0.4509,-3.1562 -5.8615,-14.4283 1.8035,-7.6651 1.8036,-1.8035 1.3526,0.2254 -2.0289,3.6071 -0.2255,3.6071 3.3817,3.3816 7.2141,8.7923 7.6651,8.116 4.2834,1.8035 1.5781,0.6763 0.4509,2.029 -2.7053,-0.2254 -3.8325,-2.2544 -3.8326,-1.8036 -3.6071,1.1272 5.4107,5.4106 11.4976,5.4107 11.4975,5.636 13.5266,0.4509 18.0355,-2.2544 14.2029,-9.0177 4.7343,-2.7053 6.0869,-7.4397 2.029,-7.665 2.2544,-8.5668 2.2545,-4.5089 -3.3816,-4.058 4.7343,-1.1272 8.3414,3.8325 9.4685,5.8616 2.4799,3.6071 -1.1272,2.2544 -2.7053,1.5781 -0.2255,4.2834 -4.0579,9.4686 -3.6071,6.087 -5.6361,5.4106 -0.6764,2.2544 2.2545,0.6763 5.6361,-3.8325 6.3124,-2.4799 9.694,-4.0579 16.2319,-10.8213 3.1562,-2.7053 -2.029,-2.7053 -31.3365,-20.7408 -17.81,-10.1449 -6.3124,-2.9308 -7.2142,-1.8035 -2.0572,-0.5636 -0.9299,-1.9163 c 0,0 0.2818,-0.62 0.3663,-0.7608 0.085,-0.141 0.789,-0.8736 0.9581,-0.9582 0.1691,-0.084 1.9163,-0.6481 1.9163,-0.6481 l 1.5499,-0.93 c 0,0 -1.0708,-0.789 -1.3808,-0.8172 -0.31,-0.028 -3.2971,-0.056 -3.2971,-0.056 l -2.7335,0.7045 -1.3245,1.1272 -0.9017,1.6345 -0.9018,0.9018 -1.9445,0.8735 -3.438,0.5636 -28.1167,0.2899 -7.0141,1.4347 -3.8259,0.797 -8.2894,-0.9564 -10.043,3.9853 -20.4048,5.8982 -12.7529,5.2606 -4.7824,1.4347 -3.1883,5.1012 -0.3188,2.71 -0.1594,0.6377 -3.1882,0.6376 -11.3183,6.5359 -4.3041,7.0142 -0.7971,3.9853 0.9565,3.3476 4.9418,4.623 5.1011,0 13.2313,1.4347 5.2606,3.5071 6.217,3.6665 z"
         style="fill:#000000;fill-opacity:1;stroke:none" />
      <path
         inkscape:connector-curvature="0"
         id="path5729"
         d="m 2083.8875,866.42851 -0.5636,4.2834 2.029,4.6216 4.847,5.4106 c 0,0 8.7923,6.5378 9.0177,6.9887 0.2255,0.4509 4.6216,2.4799 5.4107,2.4799 0.789,0 2.7053,-1.24 2.7053,-1.24 l -0.9018,-2.1416 -4.9597,-2.029 -5.4107,-5.9743 -1.0145,-1.5781 12.0612,6.5379 c 0,0 3.3817,2.3671 4.058,2.3671 0.6763,0 5.1852,1.3526 5.7488,1.3526 0.5636,0 4.9598,0.5637 5.7488,0.5637 0.789,0 5.636,-1.0145 5.636,-1.0145 l 4.9598,-1.8036 3.9453,-0.789 2.9307,-0.4509 3.9453,-3.9452 3.1562,-7.3269 0.7891,-6.6506 0.5635,-4.5089 0.2255,-3.8325 1.6908,0 0.6763,1.6908 -0.6763,11.4976 -2.1417,8.4541 -4.058,6.9888 -5.636,4.5088 -5.8616,1.5781 -5.8615,-1.2399 -3.4944,-0.5636 -1.4654,2.029 -0.5635,3.2689 -1.6909,1.5781 -2.2544,-0.6764 -0.6763,-2.818 -1.8036,-3.0435 -4.847,-0.4509 -2.4799,2.029 -7.665,-0.9017 -10.4831,-6.6506 -5.0725,-5.6361 -3.2689,-5.7488 -1.1272,-5.2979 0,-4.5089 2.1417,-0.4508 2.029,0 0,2.1417 z"
         style="fill:#ffffff;fill-opacity:1;stroke:none" />
      <path
         sodipodi:nodetypes="cccccccccccccccccccccc"
         inkscape:connector-curvature="0"
         id="path5731"
         d="m 2097.47,869.73751 3.0289,5.2606 3.8259,3.1882 3.507,1.7536 4.3042,0.3188 3.0288,-1.4347 1.7535,-4.0252 3.0289,-2.8296 1.9129,-2.5506 -2.71,-2.3911 -1.9926,-2.192 0.016,-2.6367 3.0133,-2.1855 3.7462,-2.3912 2.8694,-3.8259 0.3188,-1.2753 -8.9271,3.1883 -8.2894,0.6376 -9.2459,1.913 -3.9853,2.71 -0.3189,3.5071 z"
         style="fill:#ffffff;fill-opacity:1;stroke:none" />
    </g>
  </g>
</svg>
