<?xml version="1.0" encoding="UTF-8" standalone="no"?>
<!-- Created with Inkscape (http://www.inkscape.org/) -->

<svg
   xmlns:dc="http://purl.org/dc/elements/1.1/"
   xmlns:cc="http://creativecommons.org/ns#"
   xmlns:rdf="http://www.w3.org/1999/02/22-rdf-syntax-ns#"
   xmlns:svg="http://www.w3.org/2000/svg"
   xmlns="http://www.w3.org/2000/svg"
   xmlns:sodipodi="http://sodipodi.sourceforge.net/DTD/sodipodi-0.dtd"
   xmlns:inkscape="http://www.inkscape.org/namespaces/inkscape"
   width="261.09"
   height="255"
   id="svg2"
   version="1.1"
   inkscape:version="0.48.4 r9939"
   sodipodi:docname="conspir.svg">
  <defs
     id="defs4" />
  <sodipodi:namedview
     id="base"
     pagecolor="#ffffff"
     bordercolor="#666666"
     borderopacity="1.0"
     inkscape:pageopacity="0.0"
     inkscape:pageshadow="2"
     inkscape:zoom="0.98994949"
     inkscape:cx="287.09056"
     inkscape:cy="204.61106"
     inkscape:document-units="px"
     inkscape:current-layer="layer1"
     showgrid="false"
     inkscape:window-width="1920"
     inkscape:window-height="1017"
     inkscape:window-x="-8"
     inkscape:window-y="-8"
     inkscape:window-maximized="1" />
  <metadata
     id="metadata7">
    <rdf:RDF>
      <cc:Work
         rdf:about="">
        <dc:format>image/svg+xml</dc:format>
        <dc:type
           rdf:resource="http://purl.org/dc/dcmitype/StillImage" />
        <dc:title></dc:title>
      </cc:Work>
    </rdf:RDF>
  </metadata>
  <g
     inkscape:label="Layer 1"
     inkscape:groupmode="layer"
     id="layer1"
     transform="translate(0,-797.36218)">
    <g
       transform="matrix(0.84632121,0,0,0.8162845,-1828.515,535.19916)"
       style="display:inline"
       id="g3257">
      <path
         sodipodi:type="arc"
         style="fill:#838383;fill-opacity:1;stroke:#000000;stroke-width:8.19999981;stroke-miterlimit:4;stroke-opacity:1;stroke-dasharray:none;display:inline"
         id="path5677"
         sodipodi:cx="365.71429"
         sodipodi:cy="420.93362"
         sodipodi:rx="117.14286"
         sodipodi:ry="117.14286"
         d="m 482.85715,420.93362 c 0,64.69622 -52.44664,117.14286 -117.14286,117.14286 -64.69621,0 -117.14286,-52.44664 -117.14286,-117.14286 0,-64.69621 52.44665,-117.14286 117.14286,-117.14286 64.69622,0 117.14286,52.44665 117.14286,117.14286 z"
         transform="translate(1947.8223,59.008271)" />
      <g
         id="g4102">
        <rect
           style="fill:#3a3a3a;fill-opacity:1;stroke:#000000;stroke-width:2.79999995;stroke-miterlimit:4;stroke-opacity:1;stroke-dasharray:none"
           id="rect5577"
           width="177.02258"
           height="221.5966"
           x="1950.8101"
           y="-1304.4109"
           transform="matrix(0.74276173,0.66955583,-0.66955583,0.74276173,0,0)" />
        <path
           style="fill:none;stroke:#ffffff;stroke-width:8.0959177;stroke-linecap:butt;stroke-linejoin:miter;stroke-miterlimit:4;stroke-opacity:1;stroke-dasharray:none"
           d="m 2427.5921,432.1506 -58.019,64.84932"
           id="path5579"
           inkscape:connector-curvature="0" />
        <path
           sodipodi:type="arc"
           style="fill:none;stroke:#ffffff;stroke-width:6.35699987;stroke-linejoin:miter;stroke-miterlimit:4;stroke-opacity:1;stroke-dasharray:none;stroke-dashoffset:0"
           id="path5581"
           sodipodi:cx="488.5"
           sodipodi:cy="638.86218"
           sodipodi:rx="10.25"
           sodipodi:ry="10.25"
           d="m 498.75,638.86218 c 0,5.66092 -4.58908,10.25 -10.25,10.25 -5.66092,0 -10.25,-4.58908 -10.25,-10.25 0,-5.66092 4.58908,-10.25 10.25,-10.25 5.66092,0 10.25,4.58908 10.25,10.25 z"
           transform="matrix(1.2735438,0,0,1.2735438,1736.6864,-304.82089)" />
        <path
           inkscape:connector-curvature="0"
           id="path5583"
           d="m 2411.6817,417.83699 -44.052,49.23792"
           style="fill:none;stroke:#ffffff;stroke-width:8.02332592;stroke-linecap:butt;stroke-linejoin:miter;stroke-miterlimit:4;stroke-opacity:1;stroke-dasharray:none" />
        <path
           transform="matrix(1.2735438,0,0,1.2735438,1696.6271,-390.95788)"
           d="m 498.75,638.86218 c 0,5.66092 -4.58908,10.25 -10.25,10.25 -5.66092,0 -10.25,-4.58908 -10.25,-10.25 0,-5.66092 4.58908,-10.25 10.25,-10.25 5.66092,0 10.25,4.58908 10.25,10.25 z"
           sodipodi:ry="10.25"
           sodipodi:rx="10.25"
           sodipodi:cy="638.86218"
           sodipodi:cx="488.5"
           id="path5587"
           style="fill:none;stroke:#ffffff;stroke-width:6.35699987;stroke-linejoin:miter;stroke-miterlimit:4;stroke-opacity:1;stroke-dasharray:none;stroke-dashoffset:0"
           sodipodi:type="arc" />
        <path
           style="fill:none;stroke:#ffffff;stroke-width:8.02332592;stroke-linecap:butt;stroke-linejoin:miter;stroke-miterlimit:4;stroke-opacity:1;stroke-dasharray:none"
           d="m 2387.8783,396.50785 -25.8903,26.34054 -27.2411,0"
           id="path5591"
           inkscape:connector-curvature="0" />
      </g>
    </g>
  </g>
</svg>
