<?xml version="1.0" encoding="UTF-8" standalone="no"?>
<!-- Created with Inkscape (http://www.inkscape.org/) -->

<svg
   xmlns:dc="http://purl.org/dc/elements/1.1/"
   xmlns:cc="http://creativecommons.org/ns#"
   xmlns:rdf="http://www.w3.org/1999/02/22-rdf-syntax-ns#"
   xmlns:svg="http://www.w3.org/2000/svg"
   xmlns="http://www.w3.org/2000/svg"
   xmlns:sodipodi="http://sodipodi.sourceforge.net/DTD/sodipodi-0.dtd"
   xmlns:inkscape="http://www.inkscape.org/namespaces/inkscape"
   width="261.09"
   height="255"
   id="svg2"
   version="1.1"
   inkscape:version="0.48.4 r9939"
   sodipodi:docname="network.svg">
  <defs
     id="defs4" />
  <sodipodi:namedview
     id="base"
     pagecolor="#ffffff"
     bordercolor="#666666"
     borderopacity="1.0"
     inkscape:pageopacity="0.0"
     inkscape:pageshadow="2"
     inkscape:zoom="0.98994949"
     inkscape:cx="287.09056"
     inkscape:cy="204.61106"
     inkscape:document-units="px"
     inkscape:current-layer="layer1"
     showgrid="false"
     inkscape:window-width="1920"
     inkscape:window-height="1017"
     inkscape:window-x="-8"
     inkscape:window-y="-8"
     inkscape:window-maximized="1" />
  <metadata
     id="metadata7">
    <rdf:RDF>
      <cc:Work
         rdf:about="">
        <dc:format>image/svg+xml</dc:format>
        <dc:type
           rdf:resource="http://purl.org/dc/dcmitype/StillImage" />
        <dc:title></dc:title>
      </cc:Work>
    </rdf:RDF>
  </metadata>
  <g
     inkscape:label="Layer 1"
     inkscape:groupmode="layer"
     id="layer1"
     transform="translate(0,-797.36218)">
    <g
       id="g3164"
       transform="translate(8.0812157,-4.0406098)">
      <path
         sodipodi:type="arc"
         style="fill:#838383;fill-opacity:1;stroke:#000000;stroke-width:8.19999981;stroke-miterlimit:4;stroke-opacity:1;stroke-dasharray:none;display:inline"
         id="path5639"
         sodipodi:cx="365.71429"
         sodipodi:cy="420.93362"
         sodipodi:rx="117.14286"
         sodipodi:ry="117.14286"
         d="m 482.85715,420.93362 c 0,64.69622 -52.44664,117.14286 -117.14286,117.14286 -64.69621,0 -117.14286,-52.44664 -117.14286,-117.14286 0,-64.69621 52.44665,-117.14286 117.14286,-117.14286 64.69622,0 117.14286,52.44665 117.14286,117.14286 z"
         transform="matrix(0.90447909,0,0,0.88723258,-207.03724,555.15247)" />
      <g
         id="g3974"
         style="display:inline"
         transform="matrix(0.90447909,0,0,0.88723258,-1453.3138,683.48044)">
        <path
           style="fill:#b6b6b6;fill-opacity:1;stroke:#000000;stroke-width:2.79999995;stroke-miterlimit:4;stroke-opacity:1;stroke-dasharray:none;display:inline"
           d="m 1641.7775,303.31609 0,40.48641 0.026,0 c -0.039,0.18817 -0.051,0.37424 -0.051,0.56393 0,9.22518 45.87,16.70405 102.4399,16.70405 56.5698,0 102.4141,-7.47887 102.4141,-16.70405 0,-0.18969 -0.013,-0.37576 -0.051,-0.56393 l 0.051,0 0,-40.48641 -204.8283,0 z"
           id="path3768-1"
           inkscape:connector-curvature="0" />
        <path
           style="fill:#9e9e9e;fill-opacity:1;stroke:#000000;stroke-width:2.79999995;stroke-miterlimit:4;stroke-opacity:1;stroke-dasharray:none;display:inline"
           d="m 1846.803,303.97794 c -2.0065,6.17748 -12.0586,7.66272 -18.9434,9.63928 -29.7475,6.196 -60.9333,7.09726 -91.6339,6.96356 -26.8536,-0.56446 -54.1669,-1.75253 -79.9124,-7.96849 -5.9697,-1.70793 -18.0626,-4.92569 -13.6818,-11.17019 7.649,-6.06602 19.4574,-7.38723 29.7665,-9.37887 36.3373,-5.32387 73.7252,-5.66213 110.5391,-3.50601 18.8915,1.48085 38.304,3.00072 55.797,8.93926 3.4101,1.40109 7.7994,3.20747 8.0689,6.48146 z"
           id="path3768"
           inkscape:connector-curvature="0" />
        <path
           style="fill:#b6b6b6;fill-opacity:1;stroke:#000000;stroke-width:2.79999995;stroke-miterlimit:4;stroke-opacity:1;stroke-dasharray:none;display:inline"
           d="m 1641.7147,250.3907 0,40.48641 0.026,0 c -0.038,0.18817 -0.051,0.37424 -0.051,0.56393 0,9.22518 45.87,16.70405 102.4399,16.70405 56.5698,0 102.4141,-7.47887 102.4141,-16.70405 0,-0.18969 -0.013,-0.37576 -0.051,-0.56393 l 0.051,0 0,-40.48641 -204.8283,0 z"
           id="path3768-1-7"
           inkscape:connector-curvature="0" />
        <path
           style="fill:#9e9e9e;fill-opacity:1;stroke:#000000;stroke-width:2.79999995;stroke-miterlimit:4;stroke-opacity:1;stroke-dasharray:none;display:inline"
           d="m 1846.7402,251.05256 c -2.0065,6.17746 -12.0586,7.66271 -18.9434,9.63927 -29.7475,6.196 -60.9333,7.09726 -91.6339,6.96356 -26.8536,-0.56445 -54.1669,-1.75253 -79.9124,-7.96849 -5.9697,-1.70793 -18.0626,-4.92569 -13.6818,-11.17019 7.649,-6.06602 19.4574,-7.38724 29.7665,-9.37887 36.3373,-5.32388 73.7252,-5.66213 110.5391,-3.50601 18.8915,1.48084 38.304,3.00072 55.797,8.93926 3.4101,1.40109 7.7994,3.20747 8.0689,6.48147 z"
           id="path3768-7"
           inkscape:connector-curvature="0" />
        <path
           style="fill:#b6b6b6;fill-opacity:1;stroke:#000000;stroke-width:2.79999995;stroke-miterlimit:4;stroke-opacity:1;stroke-dasharray:none;display:inline"
           d="m 1641.3182,198.2127 0,40.48641 0.026,0 c -0.039,0.18817 -0.051,0.37424 -0.051,0.56394 0,9.22518 45.87,16.70404 102.4399,16.70404 56.5699,0 102.4142,-7.47886 102.4142,-16.70404 0,-0.1897 -0.013,-0.37577 -0.051,-0.56394 l 0.051,0 0,-40.48641 -204.8284,0 z"
           id="path3768-1-12"
           inkscape:connector-curvature="0" />
        <path
           style="fill:#9e9e9e;fill-opacity:1;stroke:#000000;stroke-width:2.79999995;stroke-miterlimit:4;stroke-opacity:1;stroke-dasharray:none;display:inline"
           d="m 1846.3437,198.87456 c -2.0065,6.17747 -12.0586,7.66271 -18.9434,9.63928 -29.7474,6.196 -60.9332,7.09725 -91.6339,6.96355 -26.8535,-0.56445 -54.1669,-1.75253 -79.9123,-7.96849 -5.9698,-1.70793 -18.0627,-4.92569 -13.6819,-11.17018 7.6491,-6.06602 19.4574,-7.38724 29.7666,-9.37888 36.3372,-5.32387 73.7251,-5.66213 110.5391,-3.50601 18.8915,1.48085 38.3039,3.00073 55.797,8.93926 3.4101,1.40109 7.7994,3.20747 8.0688,6.48147 z"
           id="path3768-6"
           inkscape:connector-curvature="0" />
      </g>
    </g>
  </g>
</svg>
