<?xml version="1.0" encoding="UTF-8" standalone="no"?>
<!-- Created with Inkscape (http://www.inkscape.org/) -->

<svg
   xmlns:dc="http://purl.org/dc/elements/1.1/"
   xmlns:cc="http://creativecommons.org/ns#"
   xmlns:rdf="http://www.w3.org/1999/02/22-rdf-syntax-ns#"
   xmlns:svg="http://www.w3.org/2000/svg"
   xmlns="http://www.w3.org/2000/svg"
   xmlns:sodipodi="http://sodipodi.sourceforge.net/DTD/sodipodi-0.dtd"
   xmlns:inkscape="http://www.inkscape.org/namespaces/inkscape"
   width="261.09"
   height="255"
   id="svg2"
   version="1.1"
   inkscape:version="0.48.4 r9939"
   sodipodi:docname="alien.svg">
  <defs
     id="defs4" />
  <sodipodi:namedview
     id="base"
     pagecolor="#ffffff"
     bordercolor="#666666"
     borderopacity="1.0"
     inkscape:pageopacity="0.0"
     inkscape:pageshadow="2"
     inkscape:zoom="0.35"
     inkscape:cx="385.97197"
     inkscape:cy="-13.186675"
     inkscape:document-units="px"
     inkscape:current-layer="layer1"
     showgrid="false"
     inkscape:window-width="1920"
     inkscape:window-height="1017"
     inkscape:window-x="-8"
     inkscape:window-y="-8"
     inkscape:window-maximized="1" />
  <metadata
     id="metadata7">
    <rdf:RDF>
      <cc:Work
         rdf:about="">
        <dc:format>image/svg+xml</dc:format>
        <dc:type
           rdf:resource="http://purl.org/dc/dcmitype/StillImage" />
        <dc:title></dc:title>
      </cc:Work>
    </rdf:RDF>
  </metadata>
  <g
     inkscape:label="Layer 1"
     inkscape:groupmode="layer"
     id="layer1"
     transform="translate(0,-797.36218)">
    <g
       id="g4097"
       transform="matrix(0.81458501,0,0,0.81458501,-39.601784,363.07017)">
      <path
         inkscape:connector-curvature="0"
         id="path4086"
         d="m 231.43726,836.61156 c 0,0 1.51523,-29.7995 7.07107,-33.84011 5.55584,-4.04061 32.95623,-5.3033 52.02286,-2.52538 19.06664,2.77792 24.74874,0 27.14786,-3.03046 2.39911,-3.03046 5.80837,-6.81853 3.6618,-17.67767 -2.14657,-10.85914 -2.14657,-16.66752 -0.37881,-18.56156 1.76777,-1.89403 6.56599,-6.69226 6.56599,-7.82868 0,-1.13642 1.13643,-1.51523 -0.63134,-3.6618 -1.76777,-2.14658 -4.9245,-4.67196 -4.9245,-4.67196 0,0 10.10153,-3.40926 10.10153,-5.93464 0,-2.52539 -2.14657,-7.95496 -2.14657,-7.95496 l -2.39912,-5.55584 c 0,0 -1.51523,-3.6618 3.78808,-6.81852 5.3033,-3.15673 14.89975,-9.72272 14.89975,-9.72272 0,0 3.6618,-1.6415 2.0203,-6.81853 -1.6415,-5.17703 -3.53553,-7.44988 -7.19734,-10.6066 -3.6618,-3.15673 -15.15228,-16.03618 -15.15228,-16.03618 0,0 -6.06092,-9.72271 -6.43973,-13.25825 -0.3788,-3.53553 -1.38896,-13.8896 -1.13642,-18.18274 0.25254,-4.29315 -1.01015,-18.68783 -1.01015,-18.68783 0,0 -5.3033,-22.60216 -9.59645,-28.66307 -4.29315,-6.06092 -33.58758,-49.37121 -101.52034,-51.64405 -67.93276,-2.27285 -99.24749,35.60787 -113.894701,50.00255 -14.64721,14.39467 -19.95051,49.24493 -19.95051,49.24493 0,0 -2.27284,29.04189 4.79823,43.18403 7.07106,14.14213 2.27284,8.58629 14.39467,25.25381 12.121831,16.66752 20.960661,26.01143 21.718281,29.29442 0.75761,3.283 8.83883,12.87945 8.33376,21.97082 -0.50508,9.09138 -21.718281,64.39723 -21.718281,64.39723 z"
         style="fill:#000000;fill-opacity:1;stroke:#000000;stroke-width:1px;stroke-linecap:butt;stroke-linejoin:miter;stroke-opacity:1" />
      <path
         inkscape:connector-curvature="0"
         id="path3279"
         d="m 169.40092,720.80571 10.07971,-0.37351 2.98657,-0.37362 7.83977,-17.1836 2.98659,-3.73567 0,-5.97696 0.74664,-4.10907 5.22651,-3.73567 0.74665,-7.84474 -19.78608,-5.60334 -8.58642,1.49427 -2.23994,22.78709 0,16.43661 z"
         style="fill:#cecece;fill-opacity:1;stroke:#000000;stroke-width:1.04563379px;stroke-linecap:butt;stroke-linejoin:miter;stroke-opacity:1" />
      <path
         inkscape:connector-curvature="0"
         id="path3281"
         d="m 112.09595,700.82039 3.54656,5.79015 3.91988,4.10918 10.26637,6.16367 7.46645,1.30741 10.63968,0.18681 10.07971,-3.1752 4.2932,-2.2414 2.4266,-0.56032 3.35989,0.18681 2.98659,1.12065 1.30663,0 1.49329,-0.93395 1.30662,-2.24129 0.93331,-3.54886 3.17324,-11.5803 -1.11997,-2.4281 3.17325,-1.30746 1.11995,-2.61491 -0.18666,-1.68108 -2.42659,-5.79015 -13.4396,-7.84474 c 0,0 -17.17283,0 -18.66612,0 -1.49329,0 -25.01259,1.12065 -25.9459,1.49427 -0.93331,0.37351 -11.013,7.84474 -11.013,7.84474 l 0.74663,9.71252 1.49329,3.92237 -0.37332,2.98843 z"
         style="fill:#7c7c7c;fill-opacity:1;stroke:none" />
      <path
         inkscape:connector-curvature="0"
         id="path3283"
         d="m 96.416416,695.40375 5.226514,1.86778 8.02643,0.18681 3.73322,-1.30745 3.3599,-2.61492 1.86661,-1.30745 c 0,0 1.67995,-0.56033 2.98658,-0.74714 1.30663,-0.18681 5.41317,-1.68097 6.34648,-1.68097 0.9333,0 10.0797,-2.42821 10.0797,-2.42821 0,0 2.47327,-2.4281 3.96655,-2.84837 1.49329,-0.42027 3.68655,0.70048 3.68655,0.70048 l 3.26658,0.56033 c 0,0 4.38653,0.65373 4.66653,0.65373 0.27999,0 4.05988,0.0931 4.05988,0.0931 0,0 5.5065,-1.58767 5.97315,-1.82113 0.46666,-0.23346 2.89325,-1.40086 3.82656,-2.28805 0.9333,-0.88719 2.65992,-2.00784 3.63989,-2.05459 0.97997,-0.0471 5.13318,-0.46692 6.34648,0.18681 1.2133,0.65373 16.70617,5.18307 16.70617,5.18307 0,0 8.44643,0.70048 12.97296,2.42821 4.52653,1.72772 12.64629,-2.10135 13.25294,-2.66167 0.60664,-0.56032 3.45323,-3.54875 3.45323,-3.54875 0,0 1.0733,-1.35421 1.02664,-2.28805 -0.0466,-0.93394 1.67994,-1.26081 1.67994,-1.26081 l 7.37313,-3.03518 c 0,0 5.22651,-2.19464 5.50649,-6.86415 0.28,-4.6695 -3.51465,-17.22527 -3.51465,-17.22527 0,0 10.84111,2.65655 18.02756,-0.0983 7.18646,-2.75507 7.23312,-3.54885 9.93971,-4.06253 2.70659,-0.51357 7.79311,-3.03518 7.79311,-3.03518 0,0 4.24654,-3.54875 8.44641,-4.06242 4.19988,-0.51368 11.94632,-7.51788 12.92629,-8.73193 0.97997,-1.21405 1.25996,-0.56032 3.31323,-5.55669 2.05328,-4.99637 2.51992,-8.40507 2.00661,-10.36625 -0.51332,-1.96118 -0.25292,-24.34495 -26.91477,-37.68435 -26.66186,-13.33939 -45.27236,-19.41474 -80.38153,-18.22608 -35.10918,1.18865 -61.37506,15.18839 -71.01029,22.98072 -9.63522,7.79234 -26.793838,36.84842 -29.829595,47.01803 -3.035757,10.1696 -4.883611,28.39565 -4.883611,28.39565 0,0 0.26398,14.52804 0.659951,18.88648 0.395971,4.35843 1.979835,11.88655 5.807534,15.18835 3.827688,3.30191 4.584937,3.47616 4.584937,3.47616 z"
         style="fill:#ffffff;fill-opacity:1;stroke:none" />
    </g>
  </g>
</svg>
