<?xml version="1.0" encoding="UTF-8" standalone="no"?>
<!-- Created with Inkscape (http://www.inkscape.org/) -->

<svg
   xmlns:dc="http://purl.org/dc/elements/1.1/"
   xmlns:cc="http://creativecommons.org/ns#"
   xmlns:rdf="http://www.w3.org/1999/02/22-rdf-syntax-ns#"
   xmlns:svg="http://www.w3.org/2000/svg"
   xmlns="http://www.w3.org/2000/svg"
   xmlns:sodipodi="http://sodipodi.sourceforge.net/DTD/sodipodi-0.dtd"
   xmlns:inkscape="http://www.inkscape.org/namespaces/inkscape"
   width="261.09"
   height="255"
   id="svg2"
   version="1.1"
   inkscape:version="0.48.4 r9939"
   sodipodi:docname="server.svg">
  <defs
     id="defs4" />
  <sodipodi:namedview
     id="base"
     pagecolor="#ffffff"
     bordercolor="#666666"
     borderopacity="1.0"
     inkscape:pageopacity="0.0"
     inkscape:pageshadow="2"
     inkscape:zoom="0.98994949"
     inkscape:cx="287.09056"
     inkscape:cy="204.61106"
     inkscape:document-units="px"
     inkscape:current-layer="layer1"
     showgrid="false"
     inkscape:window-width="1920"
     inkscape:window-height="1017"
     inkscape:window-x="-8"
     inkscape:window-y="-8"
     inkscape:window-maximized="1" />
  <metadata
     id="metadata7">
    <rdf:RDF>
      <cc:Work
         rdf:about="">
        <dc:format>image/svg+xml</dc:format>
        <dc:type
           rdf:resource="http://purl.org/dc/dcmitype/StillImage" />
        <dc:title></dc:title>
      </cc:Work>
    </rdf:RDF>
  </metadata>
  <g
     inkscape:label="Layer 1"
     inkscape:groupmode="layer"
     id="layer1"
     transform="translate(0,-797.36218)">
    <g
       style="display:inline"
       id="g3353"
       transform="matrix(0.91924553,0,0,0.91924553,-1435.6645,357.14696)">
      <g
         id="g3336"
         style="display:inline">
        <path
           transform="translate(1335.4923,191.94939)"
           d="m 482.85715,420.93362 c 0,64.69622 -52.44664,117.14286 -117.14286,117.14286 -64.69621,0 -117.14286,-52.44664 -117.14286,-117.14286 0,-64.69621 52.44665,-117.14286 117.14286,-117.14286 64.69622,0 117.14286,52.44665 117.14286,117.14286 z"
           sodipodi:ry="117.14286"
           sodipodi:rx="117.14286"
           sodipodi:cy="420.93362"
           sodipodi:cx="365.71429"
           id="path5658"
           style="fill:#838383;fill-opacity:1;stroke:#000000;stroke-width:8.19999981;stroke-miterlimit:4;stroke-opacity:1;stroke-dasharray:none;display:inline"
           sodipodi:type="arc" />
      </g>
      <g
         id="g3954">
        <path
           style="fill:#a1a1a1;fill-opacity:1;stroke:#000000;stroke-width:2.79999995;stroke-miterlimit:4;stroke-opacity:1;stroke-dasharray:none"
           d="m 1629.6711,723.54868 -22.9101,-21.7043 -0.065,-197.17457 155.0151,0 22.9017,21.70129 0,197.22143 z"
           id="path5483"
           inkscape:connector-curvature="0" />
        <rect
           style="fill:#d3d3d3;fill-opacity:1;stroke:#000000;stroke-width:2.79999995;stroke-miterlimit:4;stroke-opacity:1;stroke-dasharray:none;display:inline"
           id="rect4009-9"
           width="155.02284"
           height="197.18904"
           x="1629.6377"
           y="526.37299" />
        <path
           transform="matrix(2.3501462,0,0,2.3501462,876.20653,-571.14243)"
           d="m 409.28571,528.07648 c 0,16.56854 -13.43146,30 -30,30 -16.56855,0 -30,-13.43146 -30,-30 0,-16.56855 13.43145,-30 30,-30 16.56854,0 30,13.43145 30,30 z"
           sodipodi:ry="30"
           sodipodi:rx="30"
           sodipodi:cy="528.07648"
           sodipodi:cx="379.28571"
           id="path5487"
           style="fill:#9c9c9c;fill-opacity:1;stroke:#000000;stroke-width:1.19141519;stroke-miterlimit:4;stroke-opacity:1;stroke-dasharray:none"
           sodipodi:type="arc" />
        <path
           sodipodi:type="arc"
           style="fill:#606060;fill-opacity:1;stroke:#000000;stroke-width:4.67116928;stroke-miterlimit:4;stroke-opacity:1;stroke-dasharray:none"
           id="path4013"
           sodipodi:cx="379.28571"
           sodipodi:cy="528.07648"
           sodipodi:rx="30"
           sodipodi:ry="30"
           d="m 409.28571,528.07648 c 0,16.56854 -13.43146,30 -30,30 -16.56855,0 -30,-13.43146 -30,-30 0,-16.56855 13.43145,-30 30,-30 16.56854,0 30,13.43145 30,30 z"
           transform="matrix(0.59942164,0,0,0.59942164,1540.2314,353.37402)" />
        <path
           transform="matrix(0.33898327,0,0,0.33898327,1639.0119,490.90538)"
           d="m 409.28571,528.07648 c 0,16.56854 -13.43146,30 -30,30 -16.56855,0 -30,-13.43146 -30,-30 0,-16.56855 13.43145,-30 30,-30 16.56854,0 30,13.43145 30,30 z"
           sodipodi:ry="30"
           sodipodi:rx="30"
           sodipodi:cy="528.07648"
           sodipodi:cx="379.28571"
           id="path5485"
           style="fill:#cbcbcb;fill-opacity:1;stroke:#000000;stroke-width:8.25999451;stroke-miterlimit:4;stroke-opacity:1;stroke-dasharray:none"
           sodipodi:type="arc" />
      </g>
    </g>
  </g>
</svg>
