<?xml version="1.0" encoding="UTF-8" standalone="no"?>
<!-- Created with Inkscape (http://www.inkscape.org/) -->

<svg
   xmlns:dc="http://purl.org/dc/elements/1.1/"
   xmlns:cc="http://creativecommons.org/ns#"
   xmlns:rdf="http://www.w3.org/1999/02/22-rdf-syntax-ns#"
   xmlns:svg="http://www.w3.org/2000/svg"
   xmlns="http://www.w3.org/2000/svg"
   xmlns:sodipodi="http://sodipodi.sourceforge.net/DTD/sodipodi-0.dtd"
   xmlns:inkscape="http://www.inkscape.org/namespaces/inkscape"
   width="261.09"
   height="255"
   id="svg2"
   version="1.1"
   inkscape:version="0.48.4 r9939"
   sodipodi:docname="user error.svg">
  <defs
     id="defs4" />
  <sodipodi:namedview
     id="base"
     pagecolor="#ffffff"
     bordercolor="#666666"
     borderopacity="1.0"
     inkscape:pageopacity="0.0"
     inkscape:pageshadow="2"
     inkscape:zoom="1.4"
     inkscape:cx="160.35206"
     inkscape:cy="116.57047"
     inkscape:document-units="px"
     inkscape:current-layer="g4107"
     showgrid="false"
     inkscape:window-width="1920"
     inkscape:window-height="1017"
     inkscape:window-x="-8"
     inkscape:window-y="-8"
     inkscape:window-maximized="1" />
  <metadata
     id="metadata7">
    <rdf:RDF>
      <cc:Work
         rdf:about="">
        <dc:format>image/svg+xml</dc:format>
        <dc:type
           rdf:resource="http://purl.org/dc/dcmitype/StillImage" />
        <dc:title></dc:title>
      </cc:Work>
    </rdf:RDF>
  </metadata>
  <g
     inkscape:label="Layer 1"
     inkscape:groupmode="layer"
     id="layer1"
     transform="translate(0,-797.36218)">
    <g
       id="g4107"
       transform="matrix(1.2668298,0,0,1.2668298,18.365556,808.53915)">
      <g
         id="g4217">
        <g
           transform="matrix(0.3124896,0,0,0.3124896,205.44975,188.7405)"
           id="g4653">
          <path
             style="fill:#000000;fill-opacity:1;stroke:none"
             d="m -193.84785,-450.13799 c 51.71887,-99.61496 -59.31961,-143.99117 -59.31961,-143.99117 18.29837,60.73674 -53.67669,175.36372 -65.77262,158.86605 -12.09592,-16.49768 9.54893,-66.56647 9.54893,-66.56647 0,0 -117.61302,35.13866 -30.92655,286.90871 0,0 260.701202,-68.38682 237.05227,-217.12689 0,0 -14.1445,48.63555 -60.35135,57.98 0,0 50.97608,-25.16824 42.10709,-148.23501 -27.30968,104.25621 -72.33816,72.16478 -72.33816,72.16478 z"
             id="path4643"
             inkscape:connector-curvature="0" />
          <path
             inkscape:connector-curvature="0"
             id="path4645"
             d="m -232.71142,-373.22353 c 46.04192,-52.05185 -13.97506,-95.40155 -13.97506,-95.40155 1.85685,39.23023 -58.60841,97.25235 -63.39244,85.52489 -4.78403,-11.72745 15.74494,-38.54408 15.74494,-38.54408 0,0 -75.92259,3.4185 -61.71801,167.66756 0,0 166.86136,-1.87076 175.02431,-94.76059 0,0 -15.80872,27.08368 -44.96583,25.74769 0,0 34.40099,-7.45066 47.58023,-82.69853 -32.07963,58.50989 -54.29814,32.46461 -54.29814,32.46461 z"
             style="fill:#ffffff;fill-opacity:1;stroke:none" />
        </g>
        <g
           transform="matrix(0.3124896,0,0,0.3124896,205.44975,188.7405)"
           id="g4680">
          <path
             sodipodi:type="arc"
             style="fill:#515151;fill-opacity:1;stroke:none"
             id="path4557"
             sodipodi:cx="-389.61584"
             sodipodi:cy="-197.0955"
             sodipodi:rx="176.7767"
             sodipodi:ry="176.7767"
             d="m -212.83914,-197.0955 c 0,97.631072 -79.14563,176.776698 -176.7767,176.776698 -97.63108,0 -176.77671,-79.145626 -176.77671,-176.776698 0,-97.63108 79.14563,-176.77671 176.77671,-176.77671 97.63107,0 176.7767,79.14563 176.7767,176.77671 z"
             transform="translate(2.6225904,-27.083267)" />
          <path
             style="fill:#ffffff;fill-opacity:1;stroke:none"
             d="m -484,-193.63782 c 0,0 101,148.000002 191,4 -92.53523,76.40059 -191,-4 -191,-4 z"
             id="path4565"
             inkscape:connector-curvature="0" />
          <g
             id="g4672">
            <path
               sodipodi:nodetypes="csassc"
               inkscape:connector-curvature="0"
               id="path4567-51"
               d="m -411.1316,-245.63254 c 0,0 -34.93376,-9.93071 -60.38961,-8.16295 -17.84556,1.23927 -3.31717,-69.98251 14.86962,-97.28435 7.44033,-11.16935 19.53382,-32.96885 34.38306,-20.94804 14.84924,12.02082 21.84204,33.66807 24.57196,59.92731 3.71231,35.70889 3.53554,65.05382 -13.43503,66.46803 z"
               style="fill:#ffffff;fill-opacity:1;stroke:none;display:inline" />
            <path
               d="m -416.5,-305.38782 c 0,18.36347 -8.1708,33.25 -18.25,33.25 -10.0792,0 -18.25,-14.88653 -18.25,-33.25 0,-18.36347 8.1708,-33.25 18.25,-33.25 10.0792,0 18.25,14.88653 18.25,33.25 z"
               sodipodi:ry="33.25"
               sodipodi:rx="18.25"
               sodipodi:cy="-305.38782"
               sodipodi:cx="-434.75"
               id="path4587"
               style="fill:#515151;fill-opacity:1;stroke:none"
               sodipodi:type="arc" />
          </g>
          <g
             id="g4676">
            <path
               sodipodi:nodetypes="csassc"
               inkscape:connector-curvature="0"
               id="path4567"
               d="m -354.9676,-246.59298 c 0,0 34.93376,-9.93071 60.38961,-8.16295 17.84556,1.23927 3.31717,-69.98251 -14.86962,-97.28435 -7.44033,-11.16935 -19.53382,-32.96885 -34.38306,-20.94804 -14.84924,12.02082 -21.84204,33.66807 -24.57196,59.92731 -3.71231,35.70889 -3.53554,65.05382 13.43503,66.46803 z"
               style="fill:#ffffff;fill-opacity:1;stroke:none" />
            <path
               d="m -416.5,-305.38782 c 0,18.36347 -8.1708,33.25 -18.25,33.25 -10.0792,0 -18.25,-14.88653 -18.25,-33.25 0,-18.36347 8.1708,-33.25 18.25,-33.25 10.0792,0 18.25,14.88653 18.25,33.25 z"
               sodipodi:ry="33.25"
               sodipodi:rx="18.25"
               sodipodi:cy="-305.38782"
               sodipodi:cx="-434.75"
               id="path4587-4"
               style="fill:#515151;fill-opacity:1;stroke:none;display:inline"
               sodipodi:type="arc"
               transform="translate(94.75,0.74999857)" />
          </g>
        </g>
        <path
           sodipodi:nodetypes="ccscsssssscssssccscscsssssc"
           inkscape:connector-curvature="0"
           id="path4555"
           d="m 13.874738,175.08602 c 13.261715,5.17503 16.273827,6.98606 16.273827,6.98606 0,0 2.355591,0.94614 4.308651,0.86801 1.95306,-0.0781 7.577873,-0.85934 7.577873,-0.85934 10.155912,-4.76547 13.35893,-6.56228 14.921378,-8.59347 1.562448,-2.03118 2.578039,-3.28114 2.26555,-5.07795 -0.31249,-1.79682 -1.249959,-1.01559 -0.31249,-2.96865 0.937469,-1.95306 1.95306,-4.99984 1.874938,-6.01543 -0.07812,-1.01559 -0.738988,-1.95227 -0.468735,-3.04677 0.315405,-1.27736 1.28902,-1.52339 1.503856,-2.6171 0.235693,-1.19988 -1.757754,-4.04284 -1.757754,-4.04284 0,0 -1.893893,-1.49833 -1.699162,-2.24602 0.434255,-1.66735 3.124896,-1.48432 2.343672,-4.92171 -0.781224,-3.43738 -6.249792,-6.87477 -7.49975,-6.95289 -1.249959,-0.0781 -6.406037,-2.48039 -9.687178,-1.99212 -3.281141,0.48826 -4.765466,2.98818 -4.765466,2.98818 l -7.031016,-3.18349 c 0,0 1.718693,-15.31199 -5.546691,-18.98374 -7.265383,-3.67175 -10.780891,-1.13278 -10.780891,-1.13278 0,0 -1.64057,1.40621 -0.97653,2.89053 0.664041,1.48433 2.343672,3.67176 2.343672,3.67176 0,0 1.523387,0.93746 1.367142,3.55456 -0.156245,2.6171 -3.203018,12.06992 -3.867059,12.96832 -0.66404,0.89841 -7.49975,8.55441 -8.2028516,12.26522 -0.7031016,3.71081 -2.4217944,9.14032 -1.8358764,12.61677 0.585918,3.47644 0.4687344,6.05448 1.2108972,6.99195 0.7421628,0.93747 8.4399938,6.83294 8.4399938,6.83294 z"
           style="fill:#515151;fill-opacity:1;stroke:#ffffff;stroke-width:0.87497085;stroke-miterlimit:4;stroke-opacity:1;stroke-dasharray:none" />
        <path
           style="fill:#515151;fill-opacity:1;stroke:#ffffff;stroke-width:0.87497085;stroke-miterlimit:4;stroke-opacity:1;stroke-dasharray:none"
           d="m 160.81474,173.83606 c -13.26171,5.17503 -16.27382,6.98606 -16.27382,6.98606 0,0 -2.35559,0.94614 -4.30865,0.86802 -1.95306,-0.0781 -7.57788,-0.85935 -7.57788,-0.85935 -10.15591,-4.76547 -13.35893,-6.56228 -14.92137,-8.59347 -1.56245,-2.03118 -2.57804,-3.28114 -2.26555,-5.07795 0.31249,-1.79682 1.24995,-1.01559 0.31249,-2.96865 -0.93747,-1.95306 -1.95306,-4.99984 -1.87494,-6.01543 0.0781,-1.01559 0.73899,-1.95227 0.46873,-3.04677 -0.3154,-1.27736 -1.28902,-1.52339 -1.50385,-2.6171 -0.2357,-1.19988 1.75775,-4.04284 1.75775,-4.04284 0,0 1.89389,-1.49832 1.69916,-2.24601 -0.43425,-1.66736 -3.12489,-1.48433 -2.34367,-4.92172 0.78122,-3.43738 6.24979,-6.87477 7.49975,-6.95289 1.24996,-0.0781 6.40604,-2.48039 9.68718,-1.99212 3.28114,0.48826 4.76547,2.98818 4.76547,2.98818 l 7.03101,-3.18349 c 0,0 -1.71869,-15.31199 5.54669,-18.98374 7.26538,-3.67175 10.78089,-1.13277 10.78089,-1.13277 0,0 1.64057,1.4062 0.97653,2.89052 -0.66404,1.48433 -2.34367,3.67176 -2.34367,3.67176 0,0 -1.52339,0.93747 -1.36714,3.55457 0.15624,2.6171 3.20302,12.06991 3.86706,12.96831 0.66404,0.89841 7.49975,8.55441 8.20285,12.26522 0.7031,3.71082 2.42179,9.14032 1.83588,12.61677 -0.58592,3.47645 -0.46874,6.05449 -1.2109,6.99195 -0.74216,0.93747 -8.44,6.83294 -8.44,6.83294 z"
           id="path4657"
           inkscape:connector-curvature="0"
           sodipodi:nodetypes="ccscsssssscssssccscscsssssc" />
      </g>
    </g>
  </g>
</svg>
