<?xml version="1.0" encoding="UTF-8" standalone="no"?>
<!-- Created with Inkscape (http://www.inkscape.org/) -->

<svg
   xmlns:dc="http://purl.org/dc/elements/1.1/"
   xmlns:cc="http://creativecommons.org/ns#"
   xmlns:rdf="http://www.w3.org/1999/02/22-rdf-syntax-ns#"
   xmlns:svg="http://www.w3.org/2000/svg"
   xmlns="http://www.w3.org/2000/svg"
   xmlns:sodipodi="http://sodipodi.sourceforge.net/DTD/sodipodi-0.dtd"
   xmlns:inkscape="http://www.inkscape.org/namespaces/inkscape"
   width="500"
   height="500"
   id="svg3117"
   version="1.1"
   inkscape:version="0.48.4 r9939"
   sodipodi:docname="New document 3">
  <defs
     id="defs3119" />
  <sodipodi:namedview
     id="base"
     pagecolor="#ffffff"
     bordercolor="#666666"
     borderopacity="1.0"
     inkscape:pageopacity="0.0"
     inkscape:pageshadow="2"
     inkscape:zoom="0.35"
     inkscape:cx="375"
     inkscape:cy="520"
     inkscape:document-units="px"
     inkscape:current-layer="layer1"
     showgrid="false"
     inkscape:window-width="1920"
     inkscape:window-height="1017"
     inkscape:window-x="-8"
     inkscape:window-y="-8"
     inkscape:window-maximized="1" />
  <metadata
     id="metadata3122">
    <rdf:RDF>
      <cc:Work
         rdf:about="">
        <dc:format>image/svg+xml</dc:format>
        <dc:type
           rdf:resource="http://purl.org/dc/dcmitype/StillImage" />
        <dc:title></dc:title>
      </cc:Work>
    </rdf:RDF>
  </metadata>
  <g
     inkscape:label="Layer 1"
     inkscape:groupmode="layer"
     id="layer1"
     transform="translate(0,-552.36218)">
    <g
       style="display:inline"
       id="g4071"
       transform="translate(-797.88191,16.681989)">
      <g
         id="g4057">
        <rect
           style="fill:#000000;fill-opacity:1;stroke:#000000;stroke-width:2.79999995;stroke-miterlimit:4;stroke-opacity:1;stroke-dasharray:none"
           id="rect5988"
           width="397.58493"
           height="147.04553"
           x="493.49783"
           y="1039.5787"
           transform="matrix(0.93003724,-0.36746529,0.36746529,0.93003724,0,0)" />
        <g
           id="g4045">
          <rect
             transform="matrix(0.93003724,-0.36746529,0.36746529,0.93003724,0,0)"
             y="1088.5027"
             x="805.95544"
             height="85.433243"
             width="68.876419"
             id="rect5994"
             style="fill:#ffffff;fill-opacity:1;stroke:#000000;stroke-width:2.79999995;stroke-miterlimit:4;stroke-opacity:1;stroke-dasharray:none" />
          <rect
             transform="matrix(0.93003724,-0.36746529,0.36746529,0.93003724,0,0)"
             y="1089.4961"
             x="750.98676"
             height="35.762753"
             width="51.326176"
             id="rect5996"
             style="fill:#ffffff;fill-opacity:1;stroke:#000000;stroke-width:2.79999995;stroke-miterlimit:4;stroke-opacity:1;stroke-dasharray:none" />
          <rect
             transform="matrix(0.93003724,-0.36746529,0.36746529,0.93003724,0,0)"
             y="1089.1649"
             x="502.63431"
             height="85.102112"
             width="242.392"
             id="rect5998"
             style="fill:#ffffff;fill-opacity:1;stroke:#000000;stroke-width:2.79999995;stroke-miterlimit:4;stroke-opacity:1;stroke-dasharray:none" />
          <rect
             transform="matrix(0.93003724,-0.36746529,0.36746529,0.93003724,0,0)"
             y="1057.0447"
             x="501.97205"
             height="18.54365"
             width="18.212513"
             id="rect6000"
             style="fill:#ffffff;fill-opacity:1;stroke:#000000;stroke-width:2.79999995;stroke-miterlimit:4;stroke-opacity:1;stroke-dasharray:none" />
          <rect
             transform="matrix(0.93003724,-0.36746529,0.36746529,0.93003724,0,0)"
             y="1057.0447"
             x="530.44977"
             height="19.205923"
             width="67.883003"
             id="rect6002"
             style="fill:#ffffff;fill-opacity:1;stroke:#000000;stroke-width:2.79999995;stroke-miterlimit:4;stroke-opacity:1;stroke-dasharray:none" />
          <rect
             transform="matrix(0.93003724,-0.36746529,0.36746529,0.93003724,0,0)"
             y="1056.0513"
             x="603.9621"
             height="19.53706"
             width="65.896187"
             id="rect6004"
             style="fill:#ffffff;fill-opacity:1;stroke:#000000;stroke-width:2.79999995;stroke-miterlimit:4;stroke-opacity:1;stroke-dasharray:none" />
          <rect
             transform="matrix(0.93003724,-0.36746529,0.36746529,0.93003724,0,0)"
             y="1056.3824"
             x="677.8056"
             height="19.868196"
             width="66.558456"
             id="rect6006"
             style="fill:#ffffff;fill-opacity:1;stroke:#000000;stroke-width:2.79999995;stroke-miterlimit:4;stroke-opacity:1;stroke-dasharray:none" />
          <rect
             transform="matrix(0.93003724,-0.36746529,0.36746529,0.93003724,0,0)"
             y="1057.0447"
             x="749.66223"
             height="18.212513"
             width="52.319584"
             id="rect6008"
             style="fill:#ffffff;fill-opacity:1;stroke:#000000;stroke-width:2.79999995;stroke-miterlimit:4;stroke-opacity:1;stroke-dasharray:none" />
          <rect
             transform="matrix(0.93003724,-0.36746529,0.36746529,0.93003724,0,0)"
             y="1155.3923"
             x="750.98676"
             height="20.199333"
             width="50.663902"
             id="rect6010"
             style="fill:#ffffff;fill-opacity:1;stroke:#000000;stroke-width:2.79999995;stroke-miterlimit:4;stroke-opacity:1;stroke-dasharray:none" />
          <rect
             transform="matrix(0.93003724,-0.36746529,0.36746529,0.93003724,0,0)"
             y="1138.1732"
             x="765.55676"
             height="19.868196"
             width="19.868196"
             id="rect6012"
             style="fill:#ffffff;fill-opacity:1;stroke:none" />
        </g>
      </g>
      <g
         id="g3886">
        <path
           style="fill:#cbcbcb;fill-opacity:1;stroke:#000000;stroke-width:2.79999995;stroke-miterlimit:4;stroke-opacity:1;stroke-dasharray:none"
           d="m 1182.636,949.47816 4.773,-1.23744 14.4957,-12.9047 8.6621,-10.6066 0.1767,-3.71231 -191.8269,-189.55758 -21.75,-22.75 -18.75,-24.5 -11.75,-10.5 -21.25,20.75 4.25,6.75 21,19 32.75,32.75 25.5,30.24999 39.5,45.75 z"
           id="path5966"
           inkscape:connector-curvature="0" />
        <path
           style="fill:#797979;fill-opacity:1;stroke:#000000;stroke-width:2.79999995;stroke-miterlimit:4;stroke-opacity:1;stroke-dasharray:none"
           d="m 944.34104,694.74294 23.15775,-22.45064 0.53033,-3.71231 -11.31371,-14.67247 -2.65165,-7.07106 10.6066,-3.71231 23.86486,-0.35356 17.85448,2.12132 7.4246,1.06066 3.7123,-4.77297 -4.2427,-3.0052 3.7124,-0.53033 2.1213,0 -1.0607,-5.12653 -13.0815,-3.71231 -11.84399,-1.76776 -14.84924,-1.59099 -23.33452,-0.70711 -18.73833,4.24264 -16.08668,10.6066 -12.1976,9.36917 -8.13172,9.19238 -1.59099,9.8995 -2.65165,6.01041 -6.01041,6.0104 -6.36396,1.76777 -8.30851,4.5962 -6.89429,7.60139 3.53554,5.48008 16.617,16.44023 4.24265,-0.53033 8.66205,-9.89949 3.71231,-8.48528 3.71231,-6.54074 7.6014,-5.3033 5.83363,-0.53033 12.9047,5.65685 6.54074,6.01041 z"
           id="path5968"
           inkscape:connector-curvature="0" />
        <path
           style="opacity:0.625;fill:#ffffff;fill-opacity:1;stroke:#000000;stroke-width:2.79999995;stroke-miterlimit:4;stroke-opacity:1;stroke-dasharray:none"
           d="m 883.88341,709.41541 7.77818,-7.07107 1.76777,-4.24264 0.53033,-3.71231 8.13172,-8.48528 7.6014,-8.30851 4.94975,-3.0052 4.24264,0.53033 4.24264,2.82842 1.59099,2.12132 -2.12132,1.591 -5.48008,-0.35356 -3.88908,-1.23744 -3.35876,0.88389 -8.66206,7.6014 -5.3033,6.36396 -1.23744,6.0104 -5.3033,6.8943 -3.88909,3.71231 z"
           id="path5970"
           inkscape:connector-curvature="0" />
      </g>
    </g>
  </g>
</svg>
