<?xml version="1.0" encoding="UTF-8" standalone="no"?>
<!-- Created with Inkscape (http://www.inkscape.org/) -->

<svg
   xmlns:dc="http://purl.org/dc/elements/1.1/"
   xmlns:cc="http://creativecommons.org/ns#"
   xmlns:rdf="http://www.w3.org/1999/02/22-rdf-syntax-ns#"
   xmlns:svg="http://www.w3.org/2000/svg"
   xmlns="http://www.w3.org/2000/svg"
   xmlns:sodipodi="http://sodipodi.sourceforge.net/DTD/sodipodi-0.dtd"
   xmlns:inkscape="http://www.inkscape.org/namespaces/inkscape"
   width="261.09"
   height="255"
   id="svg2"
   version="1.1"
   inkscape:version="0.48.4 r9939"
   sodipodi:docname="audit.svg">
  <defs
     id="defs4" />
  <sodipodi:namedview
     id="base"
     pagecolor="#ffffff"
     bordercolor="#666666"
     borderopacity="1.0"
     inkscape:pageopacity="0.0"
     inkscape:pageshadow="2"
     inkscape:zoom="1.4"
     inkscape:cx="134.22088"
     inkscape:cy="80.631412"
     inkscape:document-units="px"
     inkscape:current-layer="g4107"
     showgrid="false"
     inkscape:window-width="1920"
     inkscape:window-height="1017"
     inkscape:window-x="-8"
     inkscape:window-y="-8"
     inkscape:window-maximized="1" />
  <metadata
     id="metadata7">
    <rdf:RDF>
      <cc:Work
         rdf:about="">
        <dc:format>image/svg+xml</dc:format>
        <dc:type
           rdf:resource="http://purl.org/dc/dcmitype/StillImage" />
        <dc:title></dc:title>
      </cc:Work>
    </rdf:RDF>
  </metadata>
  <g
     inkscape:label="Layer 1"
     inkscape:groupmode="layer"
     id="layer1"
     transform="translate(0,-797.36218)">
    <g
       id="g4107"
       transform="matrix(1.2668298,0,0,1.2668298,18.365556,808.53915)">
      <g
         id="g4144"
         transform="matrix(0.47943866,0,0,0.7376853,27.519972,-18.602527)">
        <g
           transform="matrix(0.77778829,0.13473512,-0.13473512,0.77778829,-621.23627,74.490176)"
           id="g4518"
           style="display:inline">
          <path
             sodipodi:type="arc"
             style="fill:#000000;fill-opacity:1;stroke:none;display:inline"
             id="path5733-4"
             sodipodi:cx="66"
             sodipodi:cy="972.36218"
             sodipodi:rx="24"
             sodipodi:ry="24"
             d="m 90,972.36218 c 0,13.25484 -10.745166,24 -24,24 -13.254834,0 -24,-10.74516 -24,-24 0,-13.25483 10.745166,-24 24,-24 13.254834,0 24,10.74517 24,24 z"
             transform="matrix(0.98617135,0.16572887,-0.16572887,0.98617135,1088.6583,-933.05151)" />
          <path
             style="fill:#000000;fill-opacity:1;stroke:none"
             d="m 952.85882,-40.1966 c 12.31549,25.08989 16.11943,36.52489 31.74065,34.07997 15.62123,-2.44493 34.22553,-22.64093 32.26963,-35.13791 -1.956,-12.49697 -10.0029,-18.91938 1.0272,-30.24805 11.03,-11.32867 36.3472,-11.13013 39.985,-26.74315 3.6378,-15.61301 26.7251,-68.5184 -6.7884,-86.3187 -33.5134,-17.80029 -106.79692,-46.34016 -125.24372,-21.04756 -18.44681,25.29259 -32.46815,60.4551 -17.36053,73.1342 15.10763,12.67911 61.28375,27.53729 53.25326,8.94936 -8.0305,-18.58793 -39.57158,-36.05677 -19.0113,-43.7558 20.56027,-7.69904 75.30509,-7.62522 73.47389,9.30542 -1.8312,16.93064 -2.0462,54.41336 -23.4187,54.87774 -21.37251,0.46437 -60.47971,-14.21988 -55.91312,12.91213 4.56659,27.13202 15.98614,49.99235 15.98614,49.99235 z"
             id="path4290"
             inkscape:connector-curvature="0"
             sodipodi:nodetypes="cssssssssssssc" />
        </g>
        <g
           transform="matrix(0.78937202,0,0,0.78937202,-614.32981,201.07074)"
           id="g4514"
           style="display:inline">
          <path
             sodipodi:type="arc"
             style="fill:#000000;fill-opacity:1;stroke:none;display:inline"
             id="path5733-0"
             sodipodi:cx="66"
             sodipodi:cy="972.36218"
             sodipodi:rx="24"
             sodipodi:ry="24"
             d="m 90,972.36218 c 0,13.25484 -10.745166,24 -24,24 -13.254834,0 -24,-10.74516 -24,-24 0,-13.25483 10.745166,-24 24,-24 13.254834,0 24,10.74517 24,24 z"
             transform="matrix(0.9849427,-0.17288109,0.17288109,0.9849427,661.03209,-903.71637)" />
          <path
             style="fill:#000000;fill-opacity:1;stroke:none;display:inline"
             d="m 897.21982,-12.662505 c 3.91121,-32.668076 -8.79684,-147.253275 -22.91828,-165.276475 -10.14012,-12.94183 -17.87691,-9.29943 -39.43303,-1.96231 -11.0094,3.74729 -14.86347,16.27165 -13.23403,28.72035 3.19559,24.41418 27.87346,115.419101 27.87346,115.419101 8.8659,38.4477138 42.67914,54.752996 47.71188,23.099334 z"
             id="path4292-9"
             inkscape:connector-curvature="0"
             sodipodi:nodetypes="cssscc" />
        </g>
        <path
           inkscape:connector-curvature="0"
           id="rect5988-4"
           d="m 329.26403,124.91441 -113.33537,-13.9461 1.82189,4.08941 -13.1833,4.65384 36.40649,4.47645 -1.46205,11.794 -39.48413,-4.86285 1.25037,-10.25745 -5.0049,1.76342 -0.47968,3.96994 8.26038,12.80743 34.92315,4.29024 -6.22687,50.49946 -29.95209,-3.68498 -7.85814,6.49001 123.59273,15.19622 10.73146,-87.27904 z m -54.15764,3.86008 -1.33863,10.81136 -31.02744,-3.81999 1.31794,-10.79512 31.04819,3.80376 z m 40.9457,23.97312 -6.23632,50.72427 -40.87705,-5.01887 6.23398,-50.70573 40.87939,5.00033 z m -43.1022,-4.69559 -2.60934,21.23576 -30.47117,-3.75015 2.60706,-21.21722 30.4735,3.73162 z m -13.58495,27.65453 -1.26418,10.21807 9.64338,1.19185 -1.4669,11.98172 -30.08411,-3.68271 1.46856,-12.00034 8.64223,1.06618 1.26413,-10.21808 11.79635,1.44331 z"
           style="fill:#000000;fill-opacity:1;stroke:#000000;stroke-width:1.67425978;stroke-miterlimit:4;stroke-opacity:1;stroke-dasharray:none;display:inline" />
        <path
           id="rect5988-8"
           d="m 33.829766,116.22007 -109.036893,24.06425 19.051982,86.40322 110.157449,-24.30859 -5.99089,-6.29466 -100.388821,22.15928 -11.039581,-50.01072 121.358902,-26.77031 1.11527,-0.97442 -9.91134,-5.0357 -11.311657,2.48573 -2.067247,-9.30543 -7.188195,-3.6667 5.251313,-8.74604 z m -3.281751,10.89513 2.517663,11.45866 -38.7174484,8.55782 -2.525793,-11.49536 38.7254044,-8.52108 z m -41.903779,9.82992 2.4817226,11.29329 -39.8747016,8.81017 -2.50013,-11.28928 39.893077,-8.81418 z m -45.914305,10.14635 2.412013,10.88516 -10.72384,2.35755 -2.393605,-10.88917 10.705471,-2.35355 z"
           style="fill:#000000;fill-opacity:1;stroke:#000000;stroke-width:1.68458915;stroke-miterlimit:4;stroke-opacity:1;stroke-dasharray:none;display:inline"
           inkscape:connector-curvature="0" />
      </g>
    </g>
  </g>
</svg>
